<svg width="18" height="18" viewBox="0 0 18 18" fill="none" xmlns="http://www.w3.org/2000/svg">
<path d="M13.1667 9.83337L9.83337 17.3334C9.17033 17.3334 8.53445 17.07 8.06561 16.6011C7.59677 16.1323 7.33337 15.4964 7.33337 14.8334V11.5H2.61671C2.37512 11.5028 2.13582 11.453 1.9154 11.354C1.69497 11.2551 1.4987 11.1094 1.34016 10.9271C1.18162 10.7448 1.06462 10.5302 0.997258 10.2982C0.929895 10.0661 0.913785 9.82224 0.950041 9.58337L2.10004 2.08338C2.16031 1.68595 2.36218 1.3237 2.66845 1.06337C2.97473 0.803037 3.36477 0.662164 3.76671 0.666708H13.1667M13.1667 9.83337V0.666708M13.1667 9.83337H15.6667C16.1087 9.83337 16.5327 9.65778 16.8452 9.34522C17.1578 9.03266 17.3334 8.60874 17.3334 8.16671V2.33337C17.3334 1.89135 17.1578 1.46742 16.8452 1.15486C16.5327 0.842303 16.1087 0.666708 15.6667 0.666708H13.1667" stroke="white" stroke-linecap="round" stroke-linejoin="round"/>
</svg>
