<svg width="18" height="18" viewBox="0 0 18 18" fill="none" xmlns="http://www.w3.org/2000/svg">
<path d="M4.83329 8.16669L8.16663 0.666687C8.82967 0.666687 9.46555 0.930079 9.93439 1.39892C10.4032 1.86776 10.6666 2.50365 10.6666 3.16669V6.50002H15.3833C15.6249 6.49728 15.8642 6.54711 16.0846 6.64603C16.305 6.74496 16.5013 6.89063 16.6598 7.07295C16.8184 7.25527 16.9354 7.46987 17.0027 7.7019C17.0701 7.93392 17.0862 8.17782 17.05 8.41669L15.9 15.9167C15.8397 16.3141 15.6378 16.6764 15.3315 16.9367C15.0253 17.197 14.6352 17.3379 14.2333 17.3334H4.83329M4.83329 8.16669V17.3334M4.83329 8.16669H2.33329C1.89127 8.16669 1.46734 8.34228 1.15478 8.65484C0.842221 8.9674 0.666626 9.39133 0.666626 9.83335V15.6667C0.666626 16.1087 0.842221 16.5326 1.15478 16.8452C1.46734 17.1578 1.89127 17.3334 2.33329 17.3334H4.83329" stroke="white" stroke-linecap="round" stroke-linejoin="round"/>
</svg>
