<svg width="151" height="151" viewBox="0 0 151 151" fill="none" xmlns="http://www.w3.org/2000/svg">
<path d="M151 75.5C151 117.197 117.197 151 75.5 151C33.8025 151 0 117.197 0 75.5C0 33.8025 33.8025 0 75.5 0C117.197 0 151 33.8025 151 75.5ZM46.1679 75.5C46.1679 91.6997 59.3003 104.832 75.5 104.832C91.6997 104.832 104.832 91.6997 104.832 75.5C104.832 59.3003 91.6997 46.1679 75.5 46.1679C59.3003 46.1679 46.1679 59.3003 46.1679 75.5Z" fill="#10A37F"/>
<path d="M121.88 65.2009C123.107 61.5651 123.533 57.713 123.129 53.9019C122.724 50.0909 121.5 46.4091 119.537 43.1028C116.627 38.1019 112.182 34.1425 106.843 31.796C101.505 29.4494 95.5487 28.837 89.8342 30.0471C87.2568 27.1811 84.0888 24.8914 80.5419 23.3312C76.9949 21.7711 73.1514 20.9764 69.2681 21.0005C63.4258 20.9866 57.73 22.8037 53.0017 26.1898C48.2734 29.5759 44.7572 34.356 42.9598 39.841C39.1539 40.6097 35.5583 42.1718 32.4137 44.4226C29.2691 46.6735 26.6481 49.5611 24.7262 52.8924C21.793 57.8796 20.5409 63.6568 21.1505 69.3916C21.7602 75.1261 24.2001 80.5212 28.1183 84.7991C26.8914 88.4349 26.4658 92.287 26.87 96.0981C27.2741 99.9091 28.4987 103.591 30.4617 106.897C33.372 111.898 37.817 115.857 43.1555 118.203C48.494 120.55 54.4501 121.163 60.1643 119.953C62.7417 122.819 65.91 125.109 69.4566 126.669C73.0036 128.229 76.8472 129.024 80.7304 128.999C86.5757 129.015 92.2746 127.197 97.0045 123.808C101.735 120.42 105.252 115.637 107.047 110.148C110.853 109.38 114.449 107.818 117.594 105.567C120.738 103.316 123.359 100.428 125.281 97.0968C128.211 92.1102 129.46 86.3343 128.849 80.602C128.237 74.8696 125.797 69.4769 121.88 65.2009ZM80.7392 121.939C75.9409 121.946 71.2933 120.288 67.6087 117.255C67.7748 117.166 68.0663 117.008 68.2562 116.894L90.0501 104.472C90.5972 104.165 91.0514 103.72 91.3661 103.182C91.6811 102.644 91.845 102.034 91.8411 101.413V71.0963L101.053 76.3446C101.101 76.3684 101.143 76.4035 101.174 76.4469C101.206 76.4904 101.225 76.5409 101.232 76.5935V101.7C101.225 107.062 99.0645 112.204 95.2234 115.997C91.3822 119.791 86.1737 121.928 80.7392 121.939ZM36.6676 103.367C34.2642 99.2698 33.398 94.4689 34.2206 89.8046C34.3825 89.9005 34.6651 90.0709 34.868 90.1859L56.6619 102.607C57.2051 102.92 57.823 103.085 58.4521 103.085C59.0809 103.085 59.6988 102.92 60.242 102.607L86.8502 87.4478V97.9443C86.8532 97.9978 86.8428 98.0515 86.8198 98.1001C86.7968 98.1487 86.7621 98.1911 86.7186 98.2233L64.6871 110.774C59.9747 113.452 54.3778 114.176 49.125 112.788C43.8721 111.399 39.392 108.011 36.6676 103.367ZM30.9343 56.4224C33.3272 52.3195 37.1069 49.1783 41.6112 47.5483C41.6112 47.7335 41.6004 48.0616 41.6004 48.2892V73.1316C41.5966 73.7521 41.7603 74.3623 42.0747 74.8998C42.3891 75.4371 42.8428 75.8821 43.3893 76.1891L69.9974 91.3463L60.7857 96.5943C60.7403 96.624 60.688 96.6419 60.6339 96.6467C60.5797 96.6516 60.5249 96.6432 60.4749 96.6221L38.4413 84.0604C33.7371 81.3723 30.3051 76.9535 28.8979 71.7724C27.4906 66.5917 28.2229 61.0715 30.9343 56.4224ZM106.618 73.8001L80.0097 58.641L89.2216 53.3949C89.267 53.3654 89.3192 53.3474 89.3734 53.3425C89.4276 53.3376 89.4821 53.3463 89.5321 53.3673L111.566 65.9183C114.942 67.8423 117.692 70.6751 119.495 74.0855C121.297 77.4959 122.078 81.3423 121.746 85.1747C121.413 89.0071 119.981 92.6666 117.617 95.7249C115.252 98.7832 112.054 101.114 108.396 102.443C108.396 102.256 108.396 101.928 108.396 101.7V76.8576C108.401 76.2382 108.239 75.6286 107.927 75.0913C107.614 74.554 107.163 74.1085 106.618 73.8001ZM115.786 60.1846C115.625 60.0866 115.342 59.9183 115.139 59.8036L93.3451 47.3822C92.8019 47.0696 92.1843 46.9046 91.5552 46.9046C90.9264 46.9046 90.3085 47.0696 89.7653 47.3822L63.1571 62.5417V52.0451C63.1541 51.9914 63.1645 51.938 63.1875 51.8894C63.2105 51.8408 63.2452 51.7984 63.2887 51.7662L85.3202 39.2257C88.6953 37.3054 92.5551 36.3732 96.4476 36.538C100.34 36.7029 104.104 37.9581 107.301 40.1567C110.496 42.3554 112.992 45.4065 114.495 48.9534C115.997 52.5001 116.446 56.3957 115.786 60.1846ZM58.1489 78.8931L48.9348 73.6449C48.8867 73.6211 48.8448 73.586 48.8136 73.5425C48.7824 73.4991 48.7624 73.4486 48.7559 73.3957V48.2892C48.7583 44.444 49.871 40.6789 51.9632 37.4348C54.0558 34.1907 57.0415 31.6018 60.5709 29.9711C64.1004 28.3405 68.0274 27.7355 71.8926 28.2271C75.7581 28.7186 79.4014 30.2864 82.3964 32.7468C82.2303 32.8362 81.941 32.9938 81.7489 33.1088L59.955 45.53C59.4079 45.8367 58.954 46.2816 58.639 46.819C58.3243 47.3563 58.1604 47.9668 58.164 48.5873L58.1489 78.8931ZM63.1527 68.2476L75.0036 61.4941L86.8543 68.2433V81.746L75.0036 88.4954L63.1527 81.746V68.2476Z" fill="white"/>
</svg>
